<?xml version="1.0" encoding="utf-8"?>
<svg version="1.1" x="0px" y="0px" viewBox="0 0 100 125" enable-background="new 0 0 100 100" xmlns="http://www.w3.org/2000/svg">
  <g>
    <g>
      <path d="M47.973,38.62c2.148,0.853,4.198,2.094,5.994,3.887c0.034,0.035,0.06,0.074,0.095,0.107    c0.267-0.17,0.538-0.328,0.801-0.515c0.871-0.621,1.724-1.322,2.53-2.091c8.663-8.272,11.807-19.882,11.938-20.376l-6.291-1.661    c-0.025,0.105-2.79,10.314-10.138,17.331C51.412,36.723,49.696,37.795,47.973,38.62z"/>
      <path d="M76.629,46.534c-2.519-0.985-6.058-1.68-9.817-2.17c7.331-3.856,13.659-8.195,13.982-8.418l-3.69-5.36    c-0.089,0.064-9.326,6.399-18.032,10.339c-1.682,0.758-3.236,1.432-4.697,2.049c9.341,9.976,4.215,25.878,3.989,26.561    c-0.229,0.684-0.867,1.115-1.551,1.115c-0.171,0-0.344-0.026-0.515-0.082c-0.856-0.284-1.319-1.209-1.035-2.065    c0.05-0.149,4.896-15.183-3.607-23.684c-8.494-8.495-24.784-2.366-24.947-2.3c-0.841,0.322-1.787-0.097-2.113-0.938    c-0.323-0.844,0.097-1.787,0.938-2.112c0.574-0.218,11.022-4.121,20.376-1.531c1.903-1.349,4.418-3.773,6.72-8.082    C59.312,17.346,41.052-8.814,16.271,9.479c-40.349,29.788,9.834,112.757,55.398,82.51c13.91-9.242,9.855-25.42,4.375-31.688    c-0.943-1.08-1.967-2.033-3.023-2.909c1.503,0.239,2.91,0.573,4.136,1.045c13.312,5.136,15.774,16.505,15.843,16.656l5.349-2.352    C98.02,72.008,93.135,52.988,76.629,46.534z"/>
    </g>
  </g>
</svg>