<?xml version="1.0" encoding="utf-8"?>
<svg version="1.1" x="0px" y="0px" viewBox="0 0 90 112.5" enable-background="new 0 0 90 90" xmlns="http://www.w3.org/2000/svg">
  <path d="M86.812,63.588c-0.916-12.325-1.415-15.148-1.415-15.148s-2.333-20.657-11.328-30.984  C65.073,7.128,58.077,7.294,53.913,8.793c-4.166,1.499-3.998,8.662-3.998,8.662s0.213,7.772,0.4,14.218  c-1.354-1.726-2.329-3.241-2.484-4.265c-0.332-2.152-0.334-9.937-0.252-17.227H42.42c0.081,7.29,0.079,15.075-0.252,17.227  c-0.157,1.017-1.119,2.522-2.462,4.234c0.184-6.279,0.38-13.451,0.38-13.451s0.167-7.163-3.998-8.662  c-4.165-1.5-11.161-1.665-20.156,8.662C6.937,28.519,4.605,49.174,4.605,49.174s-0.5,2.822-1.416,15.149S4.77,81.506,6.27,81.824  c0.511,0.107,1.186,0.608,3.416-1.518c4.321-4.12,5.731-8.101,10.788-10.695c7.663-3.931,9.617-5.836,13.449-9.943  c3.832-4.104,5.38-16.646,5.497-19.02c0.016-0.309,0.038-0.919,0.065-1.742c2.56-2.354,4.742-4.905,5.515-7.086  c0.776,2.189,2.972,4.75,5.543,7.111c0.016,0.438,0.029,0.778,0.039,0.981c0.117,2.374,1.665,14.915,5.497,19.021  c3.832,4.104,5.786,6.011,13.447,9.942c5.059,2.594,6.47,6.574,10.789,10.695c2.229,2.126,2.905,1.624,3.415,1.515  C85.23,80.77,87.727,75.913,86.812,63.588z"/>
</svg>